<svg width="1200" height="800" viewBox="0 0 1200 800" fill="none" xmlns="http://www.w3.org/2000/svg">
  <rect width="1200" height="800" fill="#090909"/>
  <rect x="80" y="84" width="1040" height="632" rx="30" fill="#111111" stroke="#2F2F2F"/>
  <rect x="130" y="136" width="940" height="78" rx="18" fill="#171717" stroke="#3D3D3D"/>
  <rect x="160" y="164" width="240" height="22" rx="11" fill="#D4D4D4"/>
  <rect x="160" y="252" width="410" height="420" rx="24" fill="#141414" stroke="#303030"/>
  <rect x="610" y="252" width="420" height="420" rx="24" fill="#141414" stroke="#303030"/>
  <path d="M188 294h156" stroke="#D4D4D4" stroke-width="8" stroke-linecap="round"/>
  <path d="M188 342h250" stroke="#595959" stroke-width="6" stroke-linecap="round"/>
  <path d="M188 386h210" stroke="#595959" stroke-width="6" stroke-linecap="round"/>
  <rect x="188" y="444" width="268" height="52" rx="16" fill="#1E1E1E" stroke="#D4D4D4"/>
  <rect x="188" y="526" width="196" height="20" rx="10" fill="#2B2B2B"/>
  <rect x="650" y="294" width="220" height="220" rx="22" fill="#D4D4D4" fill-opacity=".08" stroke="#D4D4D4" stroke-opacity=".3"/>
  <path d="M688 342h144" stroke="#D4D4D4" stroke-width="8" stroke-linecap="round"/>
  <path d="M688 388h96" stroke="#D4D4D4" stroke-width="8" stroke-linecap="round"/>
  <path d="M688 434h120" stroke="#D4D4D4" stroke-width="8" stroke-linecap="round"/>
  <rect x="648" y="560" width="312" height="48" rx="14" fill="#1A1A1A" stroke="#D4D4D4"/>
</svg>
