<svg width="1200" height="800" viewBox="0 0 1200 800" fill="none" xmlns="http://www.w3.org/2000/svg">
  <rect width="1200" height="800" fill="#0A0A0A"/>
  <rect x="58" y="58" width="1084" height="684" rx="34" fill="#121212" stroke="#373737"/>
  <rect x="104" y="104" width="270" height="160" rx="24" fill="#171717" stroke="#3A3A3A"/>
  <rect x="394" y="104" width="316" height="160" rx="24" fill="#171717" stroke="#3A3A3A"/>
  <rect x="730" y="104" width="312" height="160" rx="24" fill="#171717" stroke="#3A3A3A"/>
  <rect x="104" y="284" width="460" height="360" rx="24" fill="#171717" stroke="#3A3A3A"/>
  <rect x="584" y="284" width="458" height="360" rx="24" fill="#171717" stroke="#3A3A3A"/>
  <path d="M146 150h138" stroke="#D4D4D4" stroke-width="8" stroke-linecap="round"/>
  <path d="M434 150h130" stroke="#D4D4D4" stroke-width="8" stroke-linecap="round"/>
  <path d="M770 150h180" stroke="#D4D4D4" stroke-width="8" stroke-linecap="round"/>
  <path d="M146 340h260" stroke="#595959" stroke-width="6" stroke-linecap="round"/>
  <path d="M146 390h196" stroke="#595959" stroke-width="6" stroke-linecap="round"/>
  <rect x="146" y="478" width="170" height="54" rx="16" fill="#D4D4D4"/>
  <path d="M626 352h258" stroke="#D4D4D4" stroke-width="8" stroke-linecap="round"/>
  <path d="M626 406h170" stroke="#595959" stroke-width="6" stroke-linecap="round"/>
  <rect x="626" y="480" width="210" height="54" rx="16" fill="#D4D4D4"/>
</svg>
