<svg width="1200" height="800" viewBox="0 0 1200 800" fill="none" xmlns="http://www.w3.org/2000/svg">
  <rect width="1200" height="800" fill="#0B0B0B"/>
  <rect x="60" y="60" width="1080" height="680" rx="36" fill="#121212" stroke="#353535"/>
  <rect x="110" y="120" width="340" height="64" rx="20" fill="#1B1B1B" stroke="#D4D4D4"/>
  <circle cx="166" cy="152" r="14" fill="#D4D4D4"/>
  <path d="M122 246h180" stroke="#D4D4D4" stroke-width="8" stroke-linecap="round"/>
  <path d="M122 286h300" stroke="#666" stroke-width="6" stroke-linecap="round"/>
  <path d="M122 326h240" stroke="#666" stroke-width="6" stroke-linecap="round"/>
  <path d="M122 366h280" stroke="#666" stroke-width="6" stroke-linecap="round"/>
  <rect x="520" y="122" width="570" height="560" rx="28" fill="#151515" stroke="#2E2E2E"/>
  <circle cx="760" cy="290" r="116" fill="#D4D4D4" fill-opacity=".08" stroke="#D4D4D4" stroke-opacity=".45" stroke-width="4"/>
  <path d="M678 278c18-68 123-73 160-8" stroke="#D4D4D4" stroke-width="10" stroke-linecap="round"/>
  <path d="M700 384c44 32 126 28 160-6" stroke="#D4D4D4" stroke-width="10" stroke-linecap="round"/>
  <path d="M705 278l-28-44" stroke="#D4D4D4" stroke-width="12" stroke-linecap="round"/>
  <path d="M830 278l26-46" stroke="#D4D4D4" stroke-width="12" stroke-linecap="round"/>
  <rect x="594" y="508" width="340" height="54" rx="16" fill="#D4D4D4"/>
  <rect x="594" y="578" width="250" height="24" rx="12" fill="#2C2C2C"/>
</svg>
